<svg viewBox="0 0 975 400" xmlns="http://www.w3.org/2000/svg"><g><g><g><g><g><line x1="41.171875" y1="364.13192841170815" x2="36.171875" y2="364.13192841170815" style="visibility: inherit;" fill="rgb(0, 0, 0)" stroke="rgb(204, 204, 204)" stroke-width="1px"></line><line x1="41.171875" y1="328.7601230047225" x2="36.171875" y2="328.7601230047225" style="visibility: inherit;" fill="rgb(0, 0, 0)" stroke="rgb(204, 204, 204)" stroke-width="1px"></line><line x1="41.171875" y1="299.8592536296828" x2="36.171875" y2="299.8592536296828" style="visibility: inherit;" fill="rgb(0, 0, 0)" stroke="rgb(204, 204, 204)" stroke-width="1px"></line><line x1="41.171875" y1="275.4239167441167" x2="36.171875" y2="275.4239167441167" style="visibility: inherit;" fill="rgb(0, 0, 0)" stroke="rgb(204, 204, 204)" stroke-width="1px"></line><line x1="41.171875" y1="254.25706514647592" x2="36.171875" y2="254.25706514647592" style="visibility: inherit;" fill="rgb(0, 0, 0)" stroke="rgb(204, 204, 204)" stroke-width="1px"></line><line x1="41.171875" y1="235.5865788476575" x2="36.171875" y2="235.5865788476575" style="visibility: inherit;" fill="rgb(0, 0, 0)" stroke="rgb(204, 204, 204)" stroke-width="1px"></line><line x1="41.171875" y1="218.88525973949032" x2="36.171875" y2="218.88525973949032" style="visibility: inherit;" fill="rgb(0, 0, 0)" stroke="rgb(204, 204, 204)" stroke-width="1px"></line><line x1="41.171875" y1="109.01039647425809" x2="36.171875" y2="109.01039647425809" style="visibility: inherit;" fill="rgb(0, 0, 0)" stroke="rgb(204, 204, 204)" stroke-width="1px"></line><line x1="41.171875" y1="44.737721692232775" x2="36.171875" y2="44.737721692232775" style="visibility: inherit;" fill="rgb(0, 0, 0)" stroke="rgb(204, 204, 204)" stroke-width="1px"></line></g><g transform="translate(31.171875, 0)"><text x="0" y="364.13192841170815" dx="0em" dy="0.3em" style="text-anchor: end; visibility: hidden; font-family: Roboto, sans-serif; font-size: 12px; font-weight: 200;" fill="rgb(33, 33, 33)" stroke="none" stroke-width="1px">0.4</text><text x="0" y="328.7601230047225" dx="0em" dy="0.3em" style="text-anchor: end; visibility: inherit; font-family: Roboto, sans-serif; font-size: 12px; font-weight: 200;" fill="rgb(33, 33, 33)" stroke="none" stroke-width="1px">0.5</text><text x="0" y="299.8592536296828" dx="0em" dy="0.3em" style="text-anchor: end; visibility: hidden; font-family: Roboto, sans-serif; font-size: 12px; font-weight: 200;" fill="rgb(33, 33, 33)" stroke="none" stroke-width="1px">0.6</text><text x="0" y="275.4239167441167" dx="0em" dy="0.3em" style="text-anchor: end; visibility: inherit; font-family: Roboto, sans-serif; font-size: 12px; font-weight: 200;" fill="rgb(33, 33, 33)" stroke="none" stroke-width="1px">0.7</text><text x="0" y="254.25706514647592" dx="0em" dy="0.3em" style="text-anchor: end; visibility: hidden; font-family: Roboto, sans-serif; font-size: 12px; font-weight: 200;" fill="rgb(33, 33, 33)" stroke="none" stroke-width="1px">0.8</text><text x="0" y="235.5865788476575" dx="0em" dy="0.3em" style="text-anchor: end; visibility: inherit; font-family: Roboto, sans-serif; font-size: 12px; font-weight: 200;" fill="rgb(33, 33, 33)" stroke="none" stroke-width="1px">0.9</text><text x="0" y="218.88525973949032" dx="0em" dy="0.3em" style="text-anchor: end; visibility: hidden; font-family: Roboto, sans-serif; font-size: 12px; font-weight: 200;" fill="rgb(33, 33, 33)" stroke="none" stroke-width="1px">1</text><text x="0" y="109.01039647425809" dx="0em" dy="0.3em" style="text-anchor: end; visibility: inherit; font-family: Roboto, sans-serif; font-size: 12px; font-weight: 200;" fill="rgb(33, 33, 33)" stroke="none" stroke-width="1px">2</text><text x="0" y="44.737721692232775" dx="0em" dy="0.3em" style="text-anchor: end; visibility: hidden; font-family: Roboto, sans-serif; font-size: 12px; font-weight: 200;" fill="rgb(33, 33, 33)" stroke="none" stroke-width="1px">3</text></g><line x1="41.171875" y1="0" x2="41.171875" y2="365" fill="rgb(0, 0, 0)" stroke="rgb(204, 204, 204)" stroke-width="1px"></line></g></g><g transform="translate(41, 0)" clip-path="url(#clip_0)"><clipPath id="clip_0"><rect width="933" height="365"></rect></clipPath><g><g><g><line x1="0" y1="0" x2="0" y2="365" fill="rgb(0, 0, 0)" stroke="rgb(66, 66, 66)" stroke-width="1px" opacity="0.25"></line><line x1="103.75868055555554" y1="0" x2="103.75868055555554" y2="365" fill="rgb(0, 0, 0)" stroke="rgb(66, 66, 66)" stroke-width="1px" opacity="0.25"></line><line x1="207.5173611111111" y1="0" x2="207.5173611111111" y2="365" fill="rgb(0, 0, 0)" stroke="rgb(66, 66, 66)" stroke-width="1px" opacity="0.25"></line><line x1="311.27604166666663" y1="0" x2="311.27604166666663" y2="365" fill="rgb(0, 0, 0)" stroke="rgb(66, 66, 66)" stroke-width="1px" opacity="0.25"></line><line x1="415.0347222222222" y1="0" x2="415.0347222222222" y2="365" fill="rgb(0, 0, 0)" stroke="rgb(66, 66, 66)" stroke-width="1px" opacity="0.25"></line><line x1="518.7934027777778" y1="0" x2="518.7934027777778" y2="365" fill="rgb(0, 0, 0)" stroke="rgb(66, 66, 66)" stroke-width="1px" opacity="0.25"></line><line x1="622.5520833333333" y1="0" x2="622.5520833333333" y2="365" fill="rgb(0, 0, 0)" stroke="rgb(66, 66, 66)" stroke-width="1px" opacity="0.25"></line><line x1="726.3107638888889" y1="0" x2="726.3107638888889" y2="365" fill="rgb(0, 0, 0)" stroke="rgb(66, 66, 66)" stroke-width="1px" opacity="0.25"></line><line x1="830.0694444444443" y1="0" x2="830.0694444444443" y2="365" fill="rgb(0, 0, 0)" stroke="rgb(66, 66, 66)" stroke-width="1px" opacity="0.25"></line><line x1="933.828125" y1="0" x2="933.828125" y2="365" fill="rgb(0, 0, 0)" stroke="rgb(66, 66, 66)" stroke-width="1px" opacity="0.25"></line></g><g><line x1="0" y1="364.13192841170815" x2="933.828125" y2="364.13192841170815" fill="rgb(0, 0, 0)" stroke="rgb(66, 66, 66)" stroke-width="1px" opacity="0.25"></line><line x1="0" y1="328.7601230047225" x2="933.828125" y2="328.7601230047225" fill="rgb(0, 0, 0)" stroke="rgb(66, 66, 66)" stroke-width="1px" opacity="0.25"></line><line x1="0" y1="299.8592536296828" x2="933.828125" y2="299.8592536296828" fill="rgb(0, 0, 0)" stroke="rgb(66, 66, 66)" stroke-width="1px" opacity="0.25"></line><line x1="0" y1="275.4239167441167" x2="933.828125" y2="275.4239167441167" fill="rgb(0, 0, 0)" stroke="rgb(66, 66, 66)" stroke-width="1px" opacity="0.25"></line><line x1="0" y1="254.25706514647592" x2="933.828125" y2="254.25706514647592" fill="rgb(0, 0, 0)" stroke="rgb(66, 66, 66)" stroke-width="1px" opacity="0.25"></line><line x1="0" y1="235.5865788476575" x2="933.828125" y2="235.5865788476575" fill="rgb(0, 0, 0)" stroke="rgb(66, 66, 66)" stroke-width="1px" opacity="0.25"></line><line x1="0" y1="218.88525973949032" x2="933.828125" y2="218.88525973949032" fill="rgb(0, 0, 0)" stroke="rgb(66, 66, 66)" stroke-width="1px" opacity="0.25"></line><line x1="0" y1="109.01039647425809" x2="933.828125" y2="109.01039647425809" fill="rgb(0, 0, 0)" stroke="rgb(66, 66, 66)" stroke-width="1px" opacity="0.25"></line><line x1="0" y1="44.737721692232775" x2="933.828125" y2="44.737721692232775" fill="rgb(0, 0, 0)" stroke="rgb(66, 66, 66)" stroke-width="1px" opacity="0.25"></line></g></g></g><g><g><line x1="-5707123373.680555" y1="0" x2="-5707123373.680555" y2="365" fill="rgb(0, 0, 0)" stroke="rgb(153, 153, 153)" stroke-width="1.5px"></line></g></g><g><g><g><g><g><path stroke="rgb(255, 112, 67)" stroke-width="2px" d="M106.84031336805556,30.844126132500605L509.03662818287034,47.133784941873515L625.3501090856482,36.70757146710945L750.1026293402778,52.14285714285712L753.8725280671296,60.218149937936445L758.2027236689815,74.33936150866231L762.1075086805556,88.4495969074102L765.5211692708333,98.8857729690155L769.0351299189815,109.53194743350214L772.4799181134259,116.12050578926896L775.9558339120371,121.87523216974016L779.3106979166666,134.2190737254684L782.5548859953703,143.25708923799527L786.0930570023148,145.2772278494346L789.980548900463,155.83333218990688L794.9090862268519,163.03439243719276L802.9676770833333,168.87144758925038L806.7894551504629,172.20208945062024L809.9852225115741,179.93993582722098L813.2916657986111,191.49988410102551L816.5116435185186,199.15558442945502L820.0428972800926,197.39263556746405L823.3908440393518,210.03786759655227L826.7249563078703,214.26933589303303L829.8238822337963,222.11904817555558L833.4519774305555,236.25542262807568L837.0558622685185,239.04898974713345L840.5801987847221,248.6946322012631L848.773675925926,246.81984670384503L854.0446168981481,253.14215660473337L857.8663949652778,265.20285055663993L861.1590037615741,263.71321395824566L864.6314609374999,265.12877734654165L868.2941423611111,270.8588561396607L871.5348718171296,268.9223531172532L874.9865772569444,273.8874883830205L878.7633932291667,278.59437329741826L882.4468263888889,274.6686138106596L886.5141666666667,289.3908600631055L889.8655720486112,286.2941712179366L893.1858498263889,297.7576553380272L896.3712413194445,309.6656160241692L899.6188880208334,306.93253647892493L902.9011209490741,312.8571428571429L906.484254050926,315.5484875191315L909.7664869791666,332.42456406559404L913.2112751736112,333.64735396044483" style="fill: none;" fill="none"></path></g></g></g></g><g opacity="0.2"><g><g><g><path stroke="rgb(255, 112, 67)" stroke-width="2px" d="M106.84031336805556,30.844126132500605L509.03662818287034,61.4895068746865L625.3501090856482,22.80482729041368L750.1026293402778,87.44243924828352L753.8725280671296,81.09981170545524L758.2027236689815,120.06132774428988L762.1075086805556,139.37493186713937L765.5211692708333,137.28280777375775L769.0351299189815,151.22070451497765L772.4799181134259,141.31918291468432L775.9558339120371,144.31611073421152L779.3106979166666,189.87891331522906L782.5548859953703,182.3507973699939L786.0930570023148,153.15496166940682L789.980548900463,204.2779550731915L794.9090862268519,194.3686884204645L802.9676770833333,193.85471993478447L806.7894551504629,185.94098819333564L809.9852225115741,214.61910274187704L813.2916657986111,247.6412095545399L816.5116435185186,233.66651488394862L820.0428972800926,190.5925542970477L823.3908440393518,273.4518679693398L826.7249563078703,232.3107017023166L829.8238822337963,257.9090105378097L833.4519774305555,309.92323269719316L837.0558622685185,250.70657471411664L840.5801987847221,294.37077265792436L848.773675925926,239.5486432511822L854.0446168981481,281.25430018328757L857.8663949652778,325.3664545752005L861.1590037615741,257.8964903444389L864.6314609374999,270.91625994886647L868.2941423611111,296.0891577907773L871.5348718171296,261.40830699933736L874.9865772569444,295.45734606165666L878.7633932291667,298.9509141624049L882.4468263888889,259.8747752136753L886.5141666666667,367.5420320353051L889.8655720486112,274.48098319190854L893.1858498263889,354.28426007939515L896.3712413194445,368.95158511086186L899.6188880208334,296.4492661264516L902.9011209490741,339.0523174740229L906.484254050926,326.7948676856719L909.7664869791666,426.99751321618777L913.2112751736112,338.6349039390102" style="fill: none;" fill="none"></path></g></g></g></g></g></g><g transform="translate(41, 365)" clip-path="url(#clip_1)"><clipPath id="clip_1"><rect width="933" height="35"></rect></clipPath><g><g visibility="inherit"><g><g transform="translate(0,0)" style="visibility: inherit;"><text transform="translate(3,14)" style="text-anchor: start; font-family: Roboto, sans-serif; font-size: 12px; font-weight: 200;" fill="rgb(33, 33, 33)" stroke="none" stroke-width="1px">09:08:00 PM</text></g><g transform="translate(103.75868055555554,0)" style="visibility: inherit;"><text transform="translate(3,14)" style="text-anchor: start; font-family: Roboto, sans-serif; font-size: 12px; font-weight: 200;" fill="rgb(33, 33, 33)" stroke="none" stroke-width="1px">09:08:30 PM</text></g><g transform="translate(207.5173611111111,0)" style="visibility: inherit;"><text transform="translate(3,14)" style="text-anchor: start; font-family: Roboto, sans-serif; font-size: 12px; font-weight: 200;" fill="rgb(33, 33, 33)" stroke="none" stroke-width="1px">09:09:00 PM</text></g><g transform="translate(311.27604166666663,0)" style="visibility: inherit;"><text transform="translate(3,14)" style="text-anchor: start; font-family: Roboto, sans-serif; font-size: 12px; font-weight: 200;" fill="rgb(33, 33, 33)" stroke="none" stroke-width="1px">09:09:30 PM</text></g><g transform="translate(415.0347222222222,0)" style="visibility: inherit;"><text transform="translate(3,14)" style="text-anchor: start; font-family: Roboto, sans-serif; font-size: 12px; font-weight: 200;" fill="rgb(33, 33, 33)" stroke="none" stroke-width="1px">09:10:00 PM</text></g><g transform="translate(518.7934027777778,0)" style="visibility: inherit;"><text transform="translate(3,14)" style="text-anchor: start; font-family: Roboto, sans-serif; font-size: 12px; font-weight: 200;" fill="rgb(33, 33, 33)" stroke="none" stroke-width="1px">09:10:30 PM</text></g><g transform="translate(622.5520833333333,0)" style="visibility: inherit;"><text transform="translate(3,14)" style="text-anchor: start; font-family: Roboto, sans-serif; font-size: 12px; font-weight: 200;" fill="rgb(33, 33, 33)" stroke="none" stroke-width="1px">09:11:00 PM</text></g><g transform="translate(726.3107638888889,0)" style="visibility: inherit;"><text transform="translate(3,14)" style="text-anchor: start; font-family: Roboto, sans-serif; font-size: 12px; font-weight: 200;" fill="rgb(33, 33, 33)" stroke="none" stroke-width="1px">09:11:30 PM</text></g><g transform="translate(830.0694444444443,0)" style="visibility: inherit;"><text transform="translate(3,14)" style="text-anchor: start; font-family: Roboto, sans-serif; font-size: 12px; font-weight: 200;" fill="rgb(33, 33, 33)" stroke="none" stroke-width="1px">09:12:00 PM</text></g><g transform="translate(933.828125,0)" style="visibility: hidden;"><text transform="translate(3,14)" style="text-anchor: start; font-family: Roboto, sans-serif; font-size: 12px; font-weight: 200;" fill="rgb(33, 33, 33)" stroke="none" stroke-width="1px">09:12:30 PM</text></g></g><g><line x1="0" y1="0" x2="0" y2="17" fill="rgb(0, 0, 0)" stroke="rgb(204, 204, 204)" stroke-width="1px"></line><line x1="103.75868055555554" y1="0" x2="103.75868055555554" y2="17" fill="rgb(0, 0, 0)" stroke="rgb(204, 204, 204)" stroke-width="1px"></line><line x1="207.5173611111111" y1="0" x2="207.5173611111111" y2="17" fill="rgb(0, 0, 0)" stroke="rgb(204, 204, 204)" stroke-width="1px"></line><line x1="311.27604166666663" y1="0" x2="311.27604166666663" y2="17" fill="rgb(0, 0, 0)" stroke="rgb(204, 204, 204)" stroke-width="1px"></line><line x1="415.0347222222222" y1="0" x2="415.0347222222222" y2="17" fill="rgb(0, 0, 0)" stroke="rgb(204, 204, 204)" stroke-width="1px"></line><line x1="518.7934027777778" y1="0" x2="518.7934027777778" y2="17" fill="rgb(0, 0, 0)" stroke="rgb(204, 204, 204)" stroke-width="1px"></line><line x1="622.5520833333333" y1="0" x2="622.5520833333333" y2="17" fill="rgb(0, 0, 0)" stroke="rgb(204, 204, 204)" stroke-width="1px"></line><line x1="726.3107638888889" y1="0" x2="726.3107638888889" y2="17" fill="rgb(0, 0, 0)" stroke="rgb(204, 204, 204)" stroke-width="1px"></line><line x1="830.0694444444443" y1="0" x2="830.0694444444443" y2="17" fill="rgb(0, 0, 0)" stroke="rgb(204, 204, 204)" stroke-width="1px"></line><line x1="933.828125" y1="0" x2="933.828125" y2="17" fill="rgb(0, 0, 0)" stroke="rgb(204, 204, 204)" stroke-width="1px"></line></g><line x1="0" y1="0" x2="933.828125" y2="0" style="visibility: inherit;" fill="rgb(0, 0, 0)" stroke="rgb(204, 204, 204)" stroke-width="1px"></line></g><g visibility="inherit"><g><g transform="translate(466.9140625,0)" style="visibility: inherit;"><text transform="translate(0,31)" style="text-anchor: middle; font-family: Roboto, sans-serif; font-size: 12px; font-weight: 200;" fill="rgb(33, 33, 33)" stroke="none" stroke-width="1px">April 16, 2022</text></g></g><g><line x1="0" y1="17" x2="0" y2="34" fill="rgb(0, 0, 0)" stroke="rgb(204, 204, 204)" stroke-width="1px"></line><line x1="933.828125" y1="17" x2="933.828125" y2="34" fill="rgb(0, 0, 0)" stroke="rgb(204, 204, 204)" stroke-width="1px"></line></g><line x1="0" y1="17" x2="933.828125" y2="17" style="visibility: inherit;" fill="rgb(0, 0, 0)" stroke="rgb(204, 204, 204)" stroke-width="1px"></line></g></g></g></g></g></svg>