<svg viewBox="0 0 975 400" xmlns="http://www.w3.org/2000/svg"><g><g><g><g><g><line x1="41.171875" y1="376.1033890718191" x2="36.171875" y2="376.1033890718191" style="visibility: inherit;" fill="rgb(0, 0, 0)" stroke="rgb(204, 204, 204)" stroke-width="1px"></line><line x1="41.171875" y1="339.5686749939189" x2="36.171875" y2="339.5686749939189" style="visibility: inherit;" fill="rgb(0, 0, 0)" stroke="rgb(204, 204, 204)" stroke-width="1px"></line><line x1="41.171875" y1="309.7176400503847" x2="36.171875" y2="309.7176400503847" style="visibility: inherit;" fill="rgb(0, 0, 0)" stroke="rgb(204, 204, 204)" stroke-width="1px"></line><line x1="41.171875" y1="284.47894962337534" x2="36.171875" y2="284.47894962337534" style="visibility: inherit;" fill="rgb(0, 0, 0)" stroke="rgb(204, 204, 204)" stroke-width="1px"></line><line x1="41.171875" y1="262.6162015348532" x2="36.171875" y2="262.6162015348532" style="visibility: inherit;" fill="rgb(0, 0, 0)" stroke="rgb(204, 204, 204)" stroke-width="1px"></line><line x1="41.171875" y1="243.33189102895034" x2="36.171875" y2="243.33189102895034" style="visibility: inherit;" fill="rgb(0, 0, 0)" stroke="rgb(204, 204, 204)" stroke-width="1px"></line><line x1="41.171875" y1="226.08148745695303" x2="36.171875" y2="226.08148745695303" style="visibility: inherit;" fill="rgb(0, 0, 0)" stroke="rgb(204, 204, 204)" stroke-width="1px"></line><line x1="41.171875" y1="112.59429991998712" x2="36.171875" y2="112.59429991998712" style="visibility: inherit;" fill="rgb(0, 0, 0)" stroke="rgb(204, 204, 204)" stroke-width="1px"></line><line x1="41.171875" y1="46.20855089855276" x2="36.171875" y2="46.20855089855276" style="visibility: inherit;" fill="rgb(0, 0, 0)" stroke="rgb(204, 204, 204)" stroke-width="1px"></line></g><g transform="translate(31.171875, 0)"><text x="0" y="376.1033890718191" dx="0em" dy="0.3em" style="text-anchor: end; visibility: hidden; font-family: Roboto, sans-serif; font-size: 12px; font-weight: 200;" fill="rgb(33, 33, 33)" stroke="none" stroke-width="1px">0.4</text><text x="0" y="339.5686749939189" dx="0em" dy="0.3em" style="text-anchor: end; visibility: inherit; font-family: Roboto, sans-serif; font-size: 12px; font-weight: 200;" fill="rgb(33, 33, 33)" stroke="none" stroke-width="1px">0.5</text><text x="0" y="309.7176400503847" dx="0em" dy="0.3em" style="text-anchor: end; visibility: hidden; font-family: Roboto, sans-serif; font-size: 12px; font-weight: 200;" fill="rgb(33, 33, 33)" stroke="none" stroke-width="1px">0.6</text><text x="0" y="284.47894962337534" dx="0em" dy="0.3em" style="text-anchor: end; visibility: inherit; font-family: Roboto, sans-serif; font-size: 12px; font-weight: 200;" fill="rgb(33, 33, 33)" stroke="none" stroke-width="1px">0.7</text><text x="0" y="262.6162015348532" dx="0em" dy="0.3em" style="text-anchor: end; visibility: hidden; font-family: Roboto, sans-serif; font-size: 12px; font-weight: 200;" fill="rgb(33, 33, 33)" stroke="none" stroke-width="1px">0.8</text><text x="0" y="243.33189102895034" dx="0em" dy="0.3em" style="text-anchor: end; visibility: inherit; font-family: Roboto, sans-serif; font-size: 12px; font-weight: 200;" fill="rgb(33, 33, 33)" stroke="none" stroke-width="1px">0.9</text><text x="0" y="226.08148745695303" dx="0em" dy="0.3em" style="text-anchor: end; visibility: hidden; font-family: Roboto, sans-serif; font-size: 12px; font-weight: 200;" fill="rgb(33, 33, 33)" stroke="none" stroke-width="1px">1</text><text x="0" y="112.59429991998712" dx="0em" dy="0.3em" style="text-anchor: end; visibility: inherit; font-family: Roboto, sans-serif; font-size: 12px; font-weight: 200;" fill="rgb(33, 33, 33)" stroke="none" stroke-width="1px">2</text><text x="0" y="46.20855089855276" dx="0em" dy="0.3em" style="text-anchor: end; visibility: hidden; font-family: Roboto, sans-serif; font-size: 12px; font-weight: 200;" fill="rgb(33, 33, 33)" stroke="none" stroke-width="1px">3</text></g><line x1="41.171875" y1="0" x2="41.171875" y2="377" fill="rgb(0, 0, 0)" stroke="rgb(204, 204, 204)" stroke-width="1px"></line></g></g><g transform="translate(41, 0)" clip-path="url(#clip_0)"><clipPath id="clip_0"><rect width="933" height="377"></rect></clipPath><g><g><g><line x1="0" y1="0" x2="0" y2="377" fill="rgb(0, 0, 0)" stroke="rgb(66, 66, 66)" stroke-width="1px" opacity="0.25"></line><line x1="103.75868055555556" y1="0" x2="103.75868055555556" y2="377" fill="rgb(0, 0, 0)" stroke="rgb(66, 66, 66)" stroke-width="1px" opacity="0.25"></line><line x1="207.51736111111111" y1="0" x2="207.51736111111111" y2="377" fill="rgb(0, 0, 0)" stroke="rgb(66, 66, 66)" stroke-width="1px" opacity="0.25"></line><line x1="311.27604166666663" y1="0" x2="311.27604166666663" y2="377" fill="rgb(0, 0, 0)" stroke="rgb(66, 66, 66)" stroke-width="1px" opacity="0.25"></line><line x1="415.03472222222223" y1="0" x2="415.03472222222223" y2="377" fill="rgb(0, 0, 0)" stroke="rgb(66, 66, 66)" stroke-width="1px" opacity="0.25"></line><line x1="518.7934027777778" y1="0" x2="518.7934027777778" y2="377" fill="rgb(0, 0, 0)" stroke="rgb(66, 66, 66)" stroke-width="1px" opacity="0.25"></line><line x1="622.5520833333334" y1="0" x2="622.5520833333334" y2="377" fill="rgb(0, 0, 0)" stroke="rgb(66, 66, 66)" stroke-width="1px" opacity="0.25"></line><line x1="726.3107638888888" y1="0" x2="726.3107638888888" y2="377" fill="rgb(0, 0, 0)" stroke="rgb(66, 66, 66)" stroke-width="1px" opacity="0.25"></line><line x1="830.0694444444445" y1="0" x2="830.0694444444445" y2="377" fill="rgb(0, 0, 0)" stroke="rgb(66, 66, 66)" stroke-width="1px" opacity="0.25"></line><line x1="933.828125" y1="0" x2="933.828125" y2="377" fill="rgb(0, 0, 0)" stroke="rgb(66, 66, 66)" stroke-width="1px" opacity="0.25"></line></g><g><line x1="0" y1="376.1033890718191" x2="933.828125" y2="376.1033890718191" fill="rgb(0, 0, 0)" stroke="rgb(66, 66, 66)" stroke-width="1px" opacity="0.25"></line><line x1="0" y1="339.5686749939189" x2="933.828125" y2="339.5686749939189" fill="rgb(0, 0, 0)" stroke="rgb(66, 66, 66)" stroke-width="1px" opacity="0.25"></line><line x1="0" y1="309.7176400503847" x2="933.828125" y2="309.7176400503847" fill="rgb(0, 0, 0)" stroke="rgb(66, 66, 66)" stroke-width="1px" opacity="0.25"></line><line x1="0" y1="284.47894962337534" x2="933.828125" y2="284.47894962337534" fill="rgb(0, 0, 0)" stroke="rgb(66, 66, 66)" stroke-width="1px" opacity="0.25"></line><line x1="0" y1="262.6162015348532" x2="933.828125" y2="262.6162015348532" fill="rgb(0, 0, 0)" stroke="rgb(66, 66, 66)" stroke-width="1px" opacity="0.25"></line><line x1="0" y1="243.33189102895034" x2="933.828125" y2="243.33189102895034" fill="rgb(0, 0, 0)" stroke="rgb(66, 66, 66)" stroke-width="1px" opacity="0.25"></line><line x1="0" y1="226.08148745695303" x2="933.828125" y2="226.08148745695303" fill="rgb(0, 0, 0)" stroke="rgb(66, 66, 66)" stroke-width="1px" opacity="0.25"></line><line x1="0" y1="112.59429991998712" x2="933.828125" y2="112.59429991998712" fill="rgb(0, 0, 0)" stroke="rgb(66, 66, 66)" stroke-width="1px" opacity="0.25"></line><line x1="0" y1="46.20855089855276" x2="933.828125" y2="46.20855089855276" fill="rgb(0, 0, 0)" stroke="rgb(66, 66, 66)" stroke-width="1px" opacity="0.25"></line></g></g></g><g><g><line x1="103.75868055555556" y1="0" x2="103.75868055555556" y2="377" fill="rgb(0, 0, 0)" stroke="rgb(153, 153, 153)" stroke-width="1.5px"></line></g></g><g><g><g><g><g><path stroke="rgb(255, 112, 67)" stroke-width="2px" d="M103.75868055555556,31.858179594391036L438.92227623456796,48.68338883037347L535.8501769868827,37.91439573452127L639.8106105324074,53.85714285714283L642.952192804784,62.197924730416545L646.5606891396606,76.78339531168682L649.8146766493056,91.35752886053054L652.6593938078704,102.13681208032561L655.5876943479939,113.13299776008304L658.4583511766975,119.9381662535737L661.3549476755402,125.8820891177864L664.1506676793981,138.6317556013742L666.8541577449845,147.96691134992938L669.8026335841049,150.05346547736124L673.0422101658951,160.95661982354764L677.1493246045525,168.3944272570457L683.8648169849538,174.42338559218464L687.0496320408951,177.8635280079009L689.7127715084875,185.85576933386935L692.4681409143518,197.79577070160718L695.1514556809414,205.7031652874097L698.0941671489197,203.88225646283274L700.8841227816357,216.94322214767178L703.6625496720679,221.31380721006425L706.2449879436728,229.4215922251629L709.2684006076389,244.0227241939302L712.271637972608,246.90813461553236L715.2085850694446,256.87089408185255L722.0364826871142,254.93447180095777L726.4289334972993,261.4646384657109L729.6137485532407,273.9218483831596L732.3575892168209,272.3832374308455L735.2513035300927,273.8453398894417L738.3035380497685,279.76380483466323L741.004145929784,277.76363595946424L743.8805671296296,282.8920085490376L747.0279137731482,287.75364036473064L750.09744140625,283.6988148126539L753.4868916377316,298.9050801199747L756.2797294560185,295.7065823264715L759.0466276041666,307.5469481162637L761.7011205150462,319.84640340030626L764.4074927662036,317.0234691850814L767.1426868730709,323.14285714285717L770.1286311246142,325.92268436907557L772.8638252314814,343.35359082939436L775.7344820601852,344.6165820358567" style="fill: none;" fill="none"></path></g></g></g></g><g opacity="0.2"><g><g><g><path stroke="rgb(255, 112, 67)" stroke-width="2px" d="M103.75868055555556,31.858179594391036L438.92227623456796,63.511079703443315L535.8501769868827,23.55457503694783L639.8106105324074,90.31725916877502L642.952192804784,83.76610688481267L646.5606891396606,124.00854947834873L649.8146766493056,143.95712140797684L652.6593938078704,141.79621515262102L655.5876943479939,156.19234411547006L658.4583511766975,145.9652930379068L661.3549476755402,149.0607499912267L664.1506676793981,196.12150772559278L666.8541577449845,188.3458920780485L669.8026335841049,158.19019328593524L673.0422101658951,210.99394263724162L677.1493246045525,200.75889187538388L683.8648169849538,200.2280257956541L687.0496320408951,192.05411657229462L689.7127715084875,221.67507324297983L692.4681409143518,255.78283836181245L695.1514556809414,241.3487016746538L698.0941671489197,196.8586108766767L700.8841227816357,282.4420663683318L703.6625496720679,239.94831381307768L706.2449879436728,266.3882108842582L709.2684006076389,320.11248966258034L712.271637972608,258.9489826499232L715.2085850694446,304.0487158685958L722.0364826871142,247.42421508409777L726.4289334972993,290.50101690164223L729.6137485532407,336.06343390370023L732.3575892168209,266.3752790680917L735.2513035300927,279.8230958923909L738.3035380497685,305.8235958551316L741.004145929784,270.0025527089046L743.8805671296296,305.1710122335467L747.0279137731482,308.77943736774426L750.09744140625,268.4186034398783L753.4868916377316,379.6256056912604L756.2797294560185,283.50501551602605L759.0466276041666,365.93196178063556L761.7011205150462,381.0815002377943L764.4074927662036,306.1955433689651L767.1426868730709,350.1992429800182L770.1286311246142,337.5388085410912L772.8638252314814,441.0357876232953L775.7344820601852,349.7681062602927" style="fill: none;" fill="none"></path></g></g></g></g></g></g><g transform="translate(41, 377)" clip-path="url(#clip_1)"><clipPath id="clip_1"><rect width="933" height="23"></rect></clipPath><g><g><line x1="0" y1="0" x2="0" y2="5" style="visibility: inherit;" fill="rgb(0, 0, 0)" stroke="rgb(204, 204, 204)" stroke-width="1px"></line><line x1="103.75868055555556" y1="0" x2="103.75868055555556" y2="5" style="visibility: inherit;" fill="rgb(0, 0, 0)" stroke="rgb(204, 204, 204)" stroke-width="1px"></line><line x1="207.51736111111111" y1="0" x2="207.51736111111111" y2="5" style="visibility: inherit;" fill="rgb(0, 0, 0)" stroke="rgb(204, 204, 204)" stroke-width="1px"></line><line x1="311.27604166666663" y1="0" x2="311.27604166666663" y2="5" style="visibility: inherit;" fill="rgb(0, 0, 0)" stroke="rgb(204, 204, 204)" stroke-width="1px"></line><line x1="415.03472222222223" y1="0" x2="415.03472222222223" y2="5" style="visibility: inherit;" fill="rgb(0, 0, 0)" stroke="rgb(204, 204, 204)" stroke-width="1px"></line><line x1="518.7934027777778" y1="0" x2="518.7934027777778" y2="5" style="visibility: inherit;" fill="rgb(0, 0, 0)" stroke="rgb(204, 204, 204)" stroke-width="1px"></line><line x1="622.5520833333334" y1="0" x2="622.5520833333334" y2="5" style="visibility: inherit;" fill="rgb(0, 0, 0)" stroke="rgb(204, 204, 204)" stroke-width="1px"></line><line x1="726.3107638888888" y1="0" x2="726.3107638888888" y2="5" style="visibility: inherit;" fill="rgb(0, 0, 0)" stroke="rgb(204, 204, 204)" stroke-width="1px"></line><line x1="830.0694444444445" y1="0" x2="830.0694444444445" y2="5" style="visibility: inherit;" fill="rgb(0, 0, 0)" stroke="rgb(204, 204, 204)" stroke-width="1px"></line><line x1="933.828125" y1="0" x2="933.828125" y2="5" style="visibility: inherit;" fill="rgb(0, 0, 0)" stroke="rgb(204, 204, 204)" stroke-width="1px"></line></g><g transform="translate(0, 8)"><text x="0" y="0" dx="0em" dy="0.95em" style="text-anchor: middle; visibility: hidden; font-family: Roboto, sans-serif; font-size: 12px; font-weight: 200;" fill="rgb(33, 33, 33)" stroke="none" stroke-width="1px">-0.01</text><text x="103.75868055555556" y="0" dx="0em" dy="0.95em" style="text-anchor: middle; visibility: inherit; font-family: Roboto, sans-serif; font-size: 12px; font-weight: 200;" fill="rgb(33, 33, 33)" stroke="none" stroke-width="1px">0</text><text x="207.51736111111111" y="0" dx="0em" dy="0.95em" style="text-anchor: middle; visibility: inherit; font-family: Roboto, sans-serif; font-size: 12px; font-weight: 200;" fill="rgb(33, 33, 33)" stroke="none" stroke-width="1px">0.01</text><text x="311.27604166666663" y="0" dx="0em" dy="0.95em" style="text-anchor: middle; visibility: inherit; font-family: Roboto, sans-serif; font-size: 12px; font-weight: 200;" fill="rgb(33, 33, 33)" stroke="none" stroke-width="1px">0.02</text><text x="415.03472222222223" y="0" dx="0em" dy="0.95em" style="text-anchor: middle; visibility: inherit; font-family: Roboto, sans-serif; font-size: 12px; font-weight: 200;" fill="rgb(33, 33, 33)" stroke="none" stroke-width="1px">0.03</text><text x="518.7934027777778" y="0" dx="0em" dy="0.95em" style="text-anchor: middle; visibility: inherit; font-family: Roboto, sans-serif; font-size: 12px; font-weight: 200;" fill="rgb(33, 33, 33)" stroke="none" stroke-width="1px">0.04</text><text x="622.5520833333334" y="0" dx="0em" dy="0.95em" style="text-anchor: middle; visibility: inherit; font-family: Roboto, sans-serif; font-size: 12px; font-weight: 200;" fill="rgb(33, 33, 33)" stroke="none" stroke-width="1px">0.05</text><text x="726.3107638888888" y="0" dx="0em" dy="0.95em" style="text-anchor: middle; visibility: inherit; font-family: Roboto, sans-serif; font-size: 12px; font-weight: 200;" fill="rgb(33, 33, 33)" stroke="none" stroke-width="1px">0.06</text><text x="830.0694444444445" y="0" dx="0em" dy="0.95em" style="text-anchor: middle; visibility: inherit; font-family: Roboto, sans-serif; font-size: 12px; font-weight: 200;" fill="rgb(33, 33, 33)" stroke="none" stroke-width="1px">0.07</text><text x="933.828125" y="0" dx="0em" dy="0.95em" style="text-anchor: middle; visibility: hidden; font-family: Roboto, sans-serif; font-size: 12px; font-weight: 200;" fill="rgb(33, 33, 33)" stroke="none" stroke-width="1px">0.08</text></g><line x1="0" y1="0" x2="933.828125" y2="0" fill="rgb(0, 0, 0)" stroke="rgb(204, 204, 204)" stroke-width="1px"></line></g></g></g></g></svg>